<svg width="105" height="63" viewBox="0 0 105 63" fill="none" xmlns="http://www.w3.org/2000/svg">
<g clip-path="url(#clip0_964_17567)">
<path d="M30.2256 22.3632C30.109 26.0013 31.9428 27.6123 31.9881 28.6355C31.9665 28.8437 31.895 29.0438 31.7794 29.219C31.6639 29.3942 31.5077 29.5395 31.3239 29.6426L29.2504 31.0818C28.9821 31.2683 28.6658 31.3752 28.3384 31.3902C28.2687 31.3869 27.0117 31.6841 25.0208 27.2766C23.8061 28.78 22.2606 29.9878 20.5027 30.8077C18.7447 31.6276 16.8208 32.0378 14.8783 32.0069C12.2411 32.1499 5.09391 30.5228 5.46164 22.9784C5.20407 16.8298 10.9791 13.0102 16.9519 13.3331C18.102 13.3363 20.4509 13.3925 24.5639 14.3402V11.8312C24.9997 7.58119 22.1826 4.28362 17.305 4.77834C16.9162 4.77994 14.1623 4.69803 9.87921 6.40222C8.68693 6.94513 8.53466 6.85518 8.13777 6.85518C6.9374 6.85518 7.43148 3.40502 7.66151 2.96813C8.5055 1.94015 13.4706 0.0207225 18.3434 0.0480282C21.6015 -0.237674 24.8421 0.759341 27.3648 2.82357C28.3903 3.96091 29.1726 5.29253 29.6646 6.73801C30.1566 8.1835 30.348 9.71285 30.2272 11.2337L30.2256 22.3632V22.3632ZM16.2261 27.5657C21.4796 27.4903 23.7038 24.3581 24.2108 22.6716C24.6093 21.0574 24.5429 20.0358 24.5429 18.2706C22.9764 17.8979 20.7214 17.4916 18.1344 17.4883C15.6802 17.3052 11.1978 18.3926 11.3728 22.67C11.1719 25.3668 13.1742 27.7135 16.2261 27.5657V27.5657ZM43.9141 31.2681C42.6408 31.3837 42.0479 30.4875 41.86 29.6024L33.7927 3.15606C33.6356 2.70953 33.5319 2.24855 33.4817 1.77792C33.4519 1.5839 33.5011 1.38609 33.6183 1.22798C33.7356 1.06986 33.9113 0.964358 34.107 0.93466C34.1459 0.928235 33.7619 0.93466 37.7114 0.93466C39.1337 0.793313 39.597 1.90321 39.7444 2.60031L45.5308 25.2207L50.9025 2.60031C50.9884 2.08311 51.3788 0.822225 52.976 0.955541H55.7558C56.1074 0.92663 57.5556 0.87523 57.8099 2.62119L63.2237 25.5307L69.1965 2.62119C69.2742 2.27103 69.6371 0.79492 71.2505 0.955541H74.4451C74.5828 0.934661 75.4413 0.825437 75.2955 2.33368C75.2259 2.63083 75.8479 0.621449 66.7504 29.6233C66.5641 30.5083 65.9695 31.4046 64.6963 31.289H61.6686C59.8964 31.4737 59.6421 29.7374 59.6145 29.5623L54.2428 7.53621L48.9327 29.5398C48.9067 29.7149 48.6524 31.4512 46.8786 31.2665H43.9141V31.2681ZM88.2161 32.1724C87.2636 32.174 82.7213 32.1242 78.9242 30.1983C78.5459 30.0395 78.2238 29.773 77.9985 29.4324C77.7733 29.0918 77.6551 28.6926 77.659 28.2853V26.5587C77.659 25.2014 78.6634 25.4504 79.0894 25.6126C80.7158 26.2647 81.7591 26.7594 83.7565 27.1546C89.6935 28.364 92.3049 26.7851 92.9447 26.435C95.075 25.1805 95.2434 22.3102 93.7952 20.8212C92.0975 19.4094 91.2875 19.3564 85.1885 17.4482C84.4368 17.241 78.1094 15.2621 78.0948 9.03803C77.996 4.50207 82.1527 0.0142971 89.3566 0.0512401C91.409 0.0496339 96.878 0.714608 98.3586 2.56015C98.5773 2.89585 98.6858 3.29098 98.6696 3.69093V5.31482C98.6696 6.02798 98.4072 6.38456 97.8807 6.38456C96.6317 6.24642 94.4156 4.59041 89.9171 4.65787C88.8009 4.60005 83.4552 4.80404 83.6949 8.6686C83.6252 11.714 88.0056 12.856 88.5061 12.9877C94.4124 14.7497 96.3871 15.0421 98.7312 17.7389C101.508 21.3127 100.011 25.4969 99.4358 26.6438C96.345 32.6655 88.3522 32.1756 88.2161 32.1724V32.1724ZM94.7283 49.0152C83.3839 57.3225 66.9156 61.7445 52.8545 61.7445C33.8819 61.8685 15.5487 54.9513 1.45877 42.3526C0.400951 41.4065 1.33403 40.1103 2.62027 40.8315C18.2502 49.6965 35.9465 54.3544 53.9528 54.343C67.3995 54.2715 80.6995 51.5668 93.0889 46.3842C94.9972 45.5811 96.6155 47.637 94.7283 49.0152V49.0152ZM99.4569 43.6681C98.0054 41.8177 89.8539 42.8039 86.2042 43.236C85.1042 43.3597 84.918 42.4136 85.9142 41.7149C92.4053 37.1902 103.066 38.4864 104.291 40.0075C105.514 41.5286 103.959 52.12 97.8823 57.1796C96.9492 57.9618 96.0566 57.549 96.4713 56.521C97.8386 53.1078 100.908 45.52 99.4569 43.6681Z" fill="#737373"/>
</g>
<defs>
<clipPath id="clip0_964_17567">
<rect width="104" height="62" fill="white" transform="translate(0.5 0.5)"/>
</clipPath>
</defs>
</svg>
