<svg width="77" height="73" viewBox="0 0 77 73" fill="none" xmlns="http://www.w3.org/2000/svg">
<g clip-path="url(#clip0_964_17570)">
<path d="M68.3058 27.5171C65.9109 27.5171 63.8033 28.5114 62.2546 30.0668C56.5546 26.106 48.8748 23.5563 40.3647 23.2837L44.7874 3.27127L58.8697 6.44632C58.8697 9.91002 61.6798 12.7323 65.1285 12.7323C68.6411 12.7323 71.4672 9.82984 71.4672 6.36615C71.4672 2.90245 68.6571 0 65.1285 0C62.6697 0 60.5462 1.49131 59.4924 3.52784L43.9411 0.0641425C43.1588 -0.144321 42.3924 0.416927 42.1848 1.20267L37.3311 23.2677C28.8848 23.6205 21.2848 26.1702 15.5689 30.131C14.0201 28.5114 11.8327 27.5171 9.43778 27.5171C0.560473 27.5171 -2.34541 39.4797 5.78148 43.5688C5.49409 44.8356 5.36635 46.1826 5.36635 47.5296C5.36635 60.9675 20.4386 71.8557 38.9437 71.8557C57.5285 71.8557 72.6008 60.9675 72.6008 47.5296C72.6008 46.1826 72.4571 44.7715 72.1058 43.5047C80.0731 39.3995 77.1353 27.5171 68.3058 27.5171V27.5171ZM18.6664 44.4187C18.6664 40.8909 21.4764 38.0526 25.005 38.0526C28.4538 38.0526 31.2638 40.8748 31.2638 44.4187C31.2638 47.8824 28.4538 50.7047 25.005 50.7047C21.4924 50.7207 18.6664 47.8824 18.6664 44.4187V44.4187ZM52.8823 59.412C47.0706 65.249 30.6731 65.249 24.8613 59.412C24.2227 58.8508 24.2227 57.8566 24.8613 57.2151C25.4201 56.6539 26.4101 56.6539 26.9689 57.2151C31.4075 61.7853 46.1285 61.8655 50.7588 57.2151C51.3176 56.6539 52.3075 56.6539 52.8664 57.2151C53.521 57.8566 53.521 58.8508 52.8823 59.412ZM52.7546 50.7207C49.3058 50.7207 46.4958 47.8984 46.4958 44.4347C46.4958 40.9069 49.3058 38.0686 52.7546 38.0686C56.2672 38.0686 59.0932 40.8909 59.0932 44.4347C59.0773 47.8824 56.2672 50.7207 52.7546 50.7207Z" fill="#737373"/>
</g>
<defs>
<clipPath id="clip0_964_17570">
<rect width="76" height="72" fill="white" transform="translate(0.5 0.5)"/>
</clipPath>
</defs>
</svg>
